<?xml version="1.0" encoding="utf-8"?>
<!-- Generator: Adobe Illustrator 19.2.1, SVG Export Plug-In . SVG Version: 6.00 Build 0)  -->
<svg version="1.1" id="Capa_1" xmlns="http://www.w3.org/2000/svg" xmlns:xlink="http://www.w3.org/1999/xlink" x="0px" y="0px"
	 viewBox="0 0 800 800" style="enable-background:new 0 0 800 800;" xml:space="preserve">
<style type="text/css">
	.st0{fill:#636363;}
	.st1{fill:#FFFFFF;}
</style>
<circle class="st0" cx="400" cy="400" r="400"/>
<path class="st1" d="M472.5,129.2c19.5,5.3,31,25.3,25.9,44.8L372.2,645c-5.3,19.5-25.3,31.2-44.8,25.9s-31-25.3-25.9-44.8
	l126.3-471.1C433,135.5,453.1,123.9,472.5,129.2z"/>
<path class="st1" d="M553.8,227.8c14.3-14.3,37.5-14.3,51.8,0l10.1,10.1c31,31,56.8,56.8,74.6,80c18.7,24.6,31.9,50.5,31.9,81.9
	s-13.2,57.4-31.9,81.9c-17.7,23.3-43.6,49.2-74.6,80l-10.1,10.1c-14.3,14.3-37.5,14.3-51.8,0c-14.3-14.3-14.3-37.5,0-51.8l8.3-8.3
	c33.2-33.2,55.5-55.6,69.9-74.5c13.8-18,16.8-28.5,16.8-37.6s-3.1-19.5-16.8-37.6c-14.5-18.9-36.7-41.3-69.9-74.5l-8.3-8.3
	C539.5,265.2,539.5,242.1,553.8,227.8z"/>
<path class="st1" d="M189.5,227.8c14.3-14.3,37.5-14.3,51.8,0c14.3,14.3,14.3,37.5,0,51.8l-8.3,8.3c-33.2,33.2-55.5,55.6-69.9,74.5
	c-13.8,18-16.8,28.5-16.8,37.6s3.1,19.5,16.8,37.6c14.5,18.9,36.7,41.3,69.9,74.5l8.3,8.3c14.3,14.3,14.3,37.5,0,51.8
	c-14.3,14.3-37.5,14.3-51.8,0l-10.1-10.1c-31-31-56.8-56.8-74.6-80c-18.7-24.6-31.9-50.5-31.9-81.9s13.2-57.4,31.9-81.9
	c17.7-23.3,43.6-49.2,74.6-80L189.5,227.8z"/>
</svg>
